<mxfile host="65bd71144e">
    <diagram id="SA5zjoSrM44l7rOFG6dm" name="Data Flow">
        <mxGraphModel dx="1436" dy="1047" grid="1" gridSize="10" guides="1" tooltips="1" connect="1" arrows="1" fold="1" page="1" pageScale="1" pageWidth="827" pageHeight="1169" math="0" shadow="0">
            <root>
                <mxCell id="0"/>
                <mxCell id="1" parent="0"/>
                <mxCell id="18" value="PowerCARD AIX Monitoring System - Data Flow Architecture" style="text;html=1;strokeColor=none;fillColor=none;align=center;verticalAlign=middle;whiteSpace=wrap;rounded=0;fontSize=16;fontStyle=1;" vertex="1" parent="1">
                    <mxGeometry x="350" y="20" width="500" height="30" as="geometry"/>
                </mxCell>
                <mxCell id="19" value="AIX Servers&#xa;(PowerCARD V3.5)" style="rounded=1;whiteSpace=wrap;html=1;fillColor=#f8cecc;strokeColor=#b85450;fontSize=12;fontStyle=1;" vertex="1" parent="1">
                    <mxGeometry x="80" y="80" width="120" height="80" as="geometry"/>
                </mxCell>
                <mxCell id="20" value="• CPU Usage (user/sys/idle/wait)&#xa;• Memory (free/pinned/paging)&#xa;• Disk I/O (reads/writes/IOPS)&#xa;• Network (packets/errors)&#xa;• Process Statistics&#xa;• System Load" style="rounded=1;whiteSpace=wrap;html=1;fillColor=#fff2cc;strokeColor=#d6b656;align=left;" vertex="1" parent="1">
                    <mxGeometry x="240" y="80" width="200" height="80" as="geometry"/>
                </mxCell>
                <mxCell id="21" value="SSH Collection&#xa;Process" style="rounded=1;whiteSpace=wrap;html=1;fillColor=#d5e8d4;strokeColor=#82b366;fontSize=12;fontStyle=1;" vertex="1" parent="1">
                    <mxGeometry x="80" y="200" width="120" height="60" as="geometry"/>
                </mxCell>
                <mxCell id="22" value="Commands Executed:&#xa;• vmstat -Itw 1 2&#xa;• iostat -DAlTd 1 2&#xa;• lsps -a&#xa;• netstat -in&#xa;• ps aux -o ..." style="rounded=1;whiteSpace=wrap;html=1;fillColor=#d5e8d4;strokeColor=#82b366;align=left;" vertex="1" parent="1">
                    <mxGeometry x="240" y="200" width="160" height="60" as="geometry"/>
                </mxCell>
                <mxCell id="23" value="Data Parsing &amp;&#xa;Normalization" style="rounded=1;whiteSpace=wrap;html=1;fillColor=#e1d5e7;strokeColor=#9673a6;fontSize=12;fontStyle=1;" vertex="1" parent="1">
                    <mxGeometry x="80" y="300" width="120" height="60" as="geometry"/>
                </mxCell>
                <mxCell id="24" value="JSON Structure:&#xa;{&#xa;  &quot;timestamp&quot;: &quot;2024-01-01T10:00:00Z&quot;,&#xa;  &quot;server_id&quot;: &quot;aix01&quot;,&#xa;  &quot;metrics&quot;: {&#xa;    &quot;cpu_user&quot;: 25.5,&#xa;    &quot;memory_free&quot;: 2048,&#xa;    &quot;disk_read_kb&quot;: 1024&#xa;  }&#xa;}" style="rounded=1;whiteSpace=wrap;html=1;fillColor=#f0f0f0;strokeColor=#666666;align=left;fontFamily=Courier New;" vertex="1" parent="1">
                    <mxGeometry x="240" y="300" width="200" height="120" as="geometry"/>
                </mxCell>
                <mxCell id="25" value="Apache Kafka&#xa;Message Queue" style="rounded=1;whiteSpace=wrap;html=1;fillColor=#fff2cc;strokeColor=#d6b656;fontSize=12;fontStyle=1;" vertex="1" parent="1">
                    <mxGeometry x="500" y="200" width="120" height="60" as="geometry"/>
                </mxCell>
                <mxCell id="26" value="Topics:&#xa;• aix_metrics (main)&#xa;• alerts&#xa;• processed_metrics&#xa;&#xa;Partitioning: by server_id&#xa;Retention: 7 days" style="rounded=1;whiteSpace=wrap;html=1;fillColor=#fff2cc;strokeColor=#d6b656;align=left;" vertex="1" parent="1">
                    <mxGeometry x="650" y="180" width="160" height="100" as="geometry"/>
                </mxCell>
                <mxCell id="27" value="Storage Consumer" style="rounded=1;whiteSpace=wrap;html=1;fillColor=#dae8fc;strokeColor=#6c8ebf;fontSize=12;fontStyle=1;" vertex="1" parent="1">
                    <mxGeometry x="380" y="340" width="120" height="40" as="geometry"/>
                </mxCell>
                <mxCell id="28" value="PostgreSQL&#xa;+ TimescaleDB" style="cylinder3;whiteSpace=wrap;html=1;boundedLbl=1;backgroundOutline=1;size=15;fillColor=#dae8fc;strokeColor=#6c8ebf;" vertex="1" parent="1">
                    <mxGeometry x="400" y="400" width="80" height="80" as="geometry"/>
                </mxCell>
                <mxCell id="29" value="Analytics Consumer" style="rounded=1;whiteSpace=wrap;html=1;fillColor=#ffd966;strokeColor=#d6b656;fontSize=12;fontStyle=1;" vertex="1" parent="1">
                    <mxGeometry x="540" y="340" width="120" height="40" as="geometry"/>
                </mxCell>
                <mxCell id="30" value="Anomaly Detection&#xa;Engine" style="rounded=1;whiteSpace=wrap;html=1;fillColor=#ffd966;strokeColor=#d6b656;" vertex="1" parent="1">
                    <mxGeometry x="520" y="400" width="80" height="60" as="geometry"/>
                </mxCell>
                <mxCell id="31" value="Forecasting&#xa;Engine" style="rounded=1;whiteSpace=wrap;html=1;fillColor=#ffd966;strokeColor=#d6b656;" vertex="1" parent="1">
                    <mxGeometry x="620" y="400" width="80" height="60" as="geometry"/>
                </mxCell>
                <mxCell id="32" value="Real-time Consumer" style="rounded=1;whiteSpace=wrap;html=1;fillColor=#ffe6cc;strokeColor=#d79b00;fontSize=12;fontStyle=1;" vertex="1" parent="1">
                    <mxGeometry x="720" y="340" width="120" height="40" as="geometry"/>
                </mxCell>
                <mxCell id="33" value="Redis&#xa;Pub/Sub" style="ellipse;whiteSpace=wrap;html=1;fillColor=#ffe6cc;strokeColor=#d79b00;" vertex="1" parent="1">
                    <mxGeometry x="740" y="400" width="80" height="60" as="geometry"/>
                </mxCell>
                <mxCell id="34" value="Channels:&#xa;• server:aix01:metrics&#xa;• server:aix02:metrics&#xa;• alerts&#xa;• system_status" style="rounded=1;whiteSpace=wrap;html=1;fillColor=#ffe6cc;strokeColor=#d79b00;align=left;" vertex="1" parent="1">
                    <mxGeometry x="860" y="380" width="150" height="80" as="geometry"/>
                </mxCell>
                <mxCell id="35" value="WebSocket Server&#xa;(Django Channels)" style="rounded=1;whiteSpace=wrap;html=1;fillColor=#e1d5e7;strokeColor=#9673a6;" vertex="1" parent="1">
                    <mxGeometry x="720" y="500" width="120" height="60" as="geometry"/>
                </mxCell>
                <mxCell id="36" value="Django REST API" style="rounded=1;whiteSpace=wrap;html=1;fillColor=#e1d5e7;strokeColor=#9673a6;" vertex="1" parent="1">
                    <mxGeometry x="400" y="500" width="120" height="60" as="geometry"/>
                </mxCell>
                <mxCell id="37" value="Angular Frontend&#xa;Dashboard" style="rounded=1;whiteSpace=wrap;html=1;fillColor=#f0f0f0;strokeColor=#666666;fontSize=12;fontStyle=1;" vertex="1" parent="1">
                    <mxGeometry x="560" y="600" width="120" height="60" as="geometry"/>
                </mxCell>
                <mxCell id="38" value="Real-time Data:&#xa;• Live metrics stream&#xa;• Instant alerts&#xa;• System status updates" style="rounded=1;whiteSpace=wrap;html=1;fillColor=#ffcccc;strokeColor=#ff6666;align=left;" vertex="1" parent="1">
                    <mxGeometry x="760" y="600" width="160" height="60" as="geometry"/>
                </mxCell>
                <mxCell id="39" value="Historical Data:&#xa;• Time-series queries&#xa;• Trend analysis&#xa;• Reporting data" style="rounded=1;whiteSpace=wrap;html=1;fillColor=#ccffcc;strokeColor=#66ff66;align=left;" vertex="1" parent="1">
                    <mxGeometry x="320" y="600" width="160" height="60" as="geometry"/>
                </mxCell>
                <mxCell id="40" style="edgeStyle=orthogonalEdgeStyle;rounded=0;orthogonalLoop=1;jettySize=auto;html=1;strokeWidth=3;strokeColor=#b85450;" edge="1" parent="1" source="19" target="21">
                    <mxGeometry relative="1" as="geometry"/>
                </mxCell>
                <mxCell id="41" style="edgeStyle=orthogonalEdgeStyle;rounded=0;orthogonalLoop=1;jettySize=auto;html=1;strokeWidth=2;strokeColor=#82b366;" edge="1" parent="1" source="21" target="23">
                    <mxGeometry relative="1" as="geometry"/>
                </mxCell>
                <mxCell id="42" style="edgeStyle=orthogonalEdgeStyle;rounded=0;orthogonalLoop=1;jettySize=auto;html=1;strokeWidth=3;strokeColor=#9673a6;" edge="1" parent="1" source="23" target="25">
                    <mxGeometry relative="1" as="geometry">
                        <Array as="points">
                            <mxPoint x="140" y="280"/>
                            <mxPoint x="560" y="280"/>
                        </Array>
                    </mxGeometry>
                </mxCell>
                <mxCell id="43" style="edgeStyle=orthogonalEdgeStyle;rounded=0;orthogonalLoop=1;jettySize=auto;html=1;strokeWidth=2;strokeColor=#6c8ebf;" edge="1" parent="1" source="25" target="27">
                    <mxGeometry relative="1" as="geometry"/>
                </mxCell>
                <mxCell id="44" style="edgeStyle=orthogonalEdgeStyle;rounded=0;orthogonalLoop=1;jettySize=auto;html=1;strokeWidth=2;strokeColor=#d6b656;" edge="1" parent="1" source="25" target="29">
                    <mxGeometry relative="1" as="geometry"/>
                </mxCell>
                <mxCell id="45" style="edgeStyle=orthogonalEdgeStyle;rounded=0;orthogonalLoop=1;jettySize=auto;html=1;strokeWidth=2;strokeColor=#d79b00;" edge="1" parent="1" source="25" target="32">
                    <mxGeometry relative="1" as="geometry"/>
                </mxCell>
                <mxCell id="46" style="edgeStyle=orthogonalEdgeStyle;rounded=0;orthogonalLoop=1;jettySize=auto;html=1;strokeWidth=2;strokeColor=#6c8ebf;" edge="1" parent="1" source="27" target="28">
                    <mxGeometry relative="1" as="geometry"/>
                </mxCell>
            </root>
        </mxGraphModel>
    </diagram>
</mxfile>